<svg width="187" height="63" viewBox="0 0 187 63" fill="none" xmlns="http://www.w3.org/2000/svg">
<path fill-rule="evenodd" clip-rule="evenodd" d="M31.5 63C48.897 63 63 48.897 63 31.5C63 14.103 48.897 0 31.5 0C14.103 0 0 14.103 0 31.5C0 48.897 14.103 63 31.5 63ZM31.5947 58.8378C46.7452 58.8378 59.0271 46.5559 59.0271 31.4054C59.0271 16.2549 46.7452 3.97299 31.5947 3.97299C16.4442 3.97299 4.16228 16.2549 4.16228 31.4054C4.16228 46.5559 16.4442 58.8378 31.5947 58.8378Z" fill="#E8F5FF"/>
<path d="M33.9519 46.4981C42.5467 44.9987 48.2987 36.8158 46.7994 28.221C45.3 19.6262 37.1171 13.8742 28.5223 15.3735C19.9275 16.8729 14.1755 25.0558 15.6748 33.6506C17.1742 42.2454 25.3571 47.9974 33.9519 46.4981Z" fill="#EDE759" fill-opacity="0.64"/>
<path fill-rule="evenodd" clip-rule="evenodd" d="M27.4902 11.1125C27.3249 10.4021 27.0977 9.85271 26.8432 9.60634C26.2261 9.00882 27.3467 9.04972 28.1599 9.14293C28.8488 8.83043 29.6144 8.5901 29.28 9.26008C29.1228 9.57503 29.0939 10.1635 29.178 10.8807L29.356 11.9011C29.7517 13.6496 30.6516 15.7032 31.8993 16.5669C33.4104 17.6131 30.9425 17.4462 29.4885 17.278C28.2003 17.9305 25.7777 19.0316 26.8716 17.4753C27.7491 16.2269 27.8959 13.9639 27.6731 12.1608L27.4902 11.1125Z" fill="#EDE759" fill-opacity="0.64"/>
<path d="M28.1386 9.87114C29.1165 9.70056 29.8146 9.0199 29.6979 8.35084C29.5811 7.68178 28.6938 7.27769 27.716 7.44828C26.7381 7.61886 26.04 8.29952 26.1567 8.96858C26.2735 9.63764 27.1608 10.0417 28.1386 9.87114Z" fill="#EDE759" fill-opacity="0.64"/>
<path fill-rule="evenodd" clip-rule="evenodd" d="M34.6018 13.0777C34.6464 12.751 34.611 12.4743 34.4881 12.3131C34.1899 11.9225 34.9672 12.2109 35.5171 12.4459C36.0715 12.4872 36.6635 12.5761 36.2773 12.7651C36.0956 12.8539 35.9423 13.0842 35.8392 13.3939L35.7336 13.848C35.616 14.649 35.7835 15.6954 36.4643 16.3466C37.2887 17.1352 35.594 16.4689 34.6111 16.0481C33.5592 15.9984 31.609 15.8542 32.729 15.4923C33.6274 15.2021 34.2421 14.3252 34.4933 13.5442L34.6018 13.0777Z" fill="#EDE759" fill-opacity="0.64"/>
<path d="M35.3048 12.7704C36.0681 12.9479 36.7636 12.7618 36.8582 12.3547C36.9529 11.9476 36.4109 11.4737 35.6476 11.2962C34.8843 11.1187 34.1888 11.3048 34.0942 11.7119C33.9995 12.119 34.5415 12.5929 35.3048 12.7704Z" fill="#EDE759" fill-opacity="0.64"/>
<path fill-rule="evenodd" clip-rule="evenodd" d="M16.4163 41.5237C16.161 41.7312 15.998 41.9569 15.9775 42.1582C15.9278 42.6472 15.558 41.9049 15.3176 41.3574C14.9414 40.9482 14.5706 40.4785 14.9815 40.6048C15.1745 40.6642 15.4434 40.6014 15.7299 40.4465L16.1201 40.1857C16.7533 39.6816 17.346 38.8042 17.2948 37.8642C17.2328 36.725 18.0134 38.3704 18.4426 39.3496C19.176 40.1054 20.4997 41.5443 19.4352 41.0422C18.5819 40.6397 17.5346 40.8583 16.8172 41.2558L16.4163 41.5237Z" fill="#EDE759" fill-opacity="0.64"/>
<path d="M15.6944 41.2658C15.259 40.6143 14.6243 40.2743 14.2768 40.5065C13.9293 40.7387 14.0006 41.4552 14.436 42.1068C14.8714 42.7583 15.506 43.0983 15.8535 42.8661C16.201 42.6339 16.1298 41.9174 15.6944 41.2658Z" fill="#EDE759" fill-opacity="0.64"/>
<path fill-rule="evenodd" clip-rule="evenodd" d="M13.5599 26.761C13.2344 26.713 12.9577 26.7453 12.7954 26.8663C12.4014 27.16 12.6987 26.3857 12.9399 25.8385C12.9875 25.2848 13.0831 24.6941 13.2676 25.0824C13.3543 25.2648 13.5824 25.4206 13.8903 25.5272L14.3457 25.6385C15.1451 25.7647 16.1926 25.6088 16.8511 24.9358C17.649 24.1204 16.9634 25.8078 16.5315 26.7858C16.4699 27.8372 16.3036 29.785 15.9545 28.6611C15.6746 27.76 14.8056 27.1356 14.0278 26.8754L13.5599 26.761Z" fill="#EDE759" fill-opacity="0.64"/>
<path d="M13.2619 26.0545C13.448 25.2933 13.2698 24.5957 12.8638 24.4965C12.4578 24.3972 11.9778 24.9338 11.7917 25.6951C11.6056 26.4563 11.7838 27.1539 12.1898 27.2531C12.5958 27.3524 13.0758 26.8158 13.2619 26.0545Z" fill="#EDE759" fill-opacity="0.64"/>
<path fill-rule="evenodd" clip-rule="evenodd" d="M28.6657 48.958C28.6263 49.2848 28.666 49.5606 28.7913 49.7197C29.0954 50.1057 28.3136 49.8292 27.7603 49.6027C27.2053 49.57 26.6121 49.4901 26.9954 49.2953C27.1755 49.2038 27.3252 48.9715 27.4235 48.6608L27.5225 48.2031C27.6274 47.4005 27.4437 46.3574 26.7533 45.717C25.9169 44.9412 27.6218 45.5815 28.6109 45.987C29.6635 46.0206 31.6155 46.1348 30.5012 46.5138C29.6078 46.8177 29.0067 47.7033 28.7674 48.4878L28.6657 48.958Z" fill="#EDE759" fill-opacity="0.64"/>
<path d="M27.9672 49.2751C27.2012 49.1093 26.5087 49.3061 26.4203 49.7146C26.3319 50.1231 26.8811 50.5886 27.6471 50.7543C28.413 50.9201 29.1055 50.7233 29.1939 50.3148C29.2823 49.9063 28.7331 49.4408 27.9672 49.2751Z" fill="#EDE759" fill-opacity="0.64"/>
<path fill-rule="evenodd" clip-rule="evenodd" d="M42.8483 44.8465C43.0831 45.0764 43.3256 45.2128 43.5279 45.2104C44.0192 45.2047 43.3237 45.6558 42.8069 45.9564C42.4427 46.3764 42.0177 46.798 42.0969 46.3754C42.134 46.1771 42.0414 45.9172 41.8554 45.6502L41.5514 45.2909C40.9791 44.7189 40.0406 44.2293 39.1126 44.3862C37.9879 44.5764 39.5343 43.6152 40.4589 43.0782C41.127 42.2642 42.4075 40.7864 42.0287 41.9007C41.7252 42.7938 42.0603 43.8095 42.536 44.4774L42.8483 44.8465Z" fill="#EDE759" fill-opacity="0.64"/>
<path d="M42.6732 45.5926C42.075 46.0987 41.8088 46.7677 42.0788 47.0868C42.3487 47.4058 43.0525 47.2542 43.6508 46.748C44.249 46.2419 44.5152 45.5729 44.2452 45.2538C43.9753 44.9348 43.2715 45.0864 42.6732 45.5926Z" fill="#EDE759" fill-opacity="0.64"/>
<path fill-rule="evenodd" clip-rule="evenodd" d="M49.1771 33.7019C49.5044 33.7334 49.7789 33.6872 49.9348 33.5582C50.3135 33.245 50.0556 34.0332 49.8423 34.5918C49.8227 35.1473 49.757 35.7421 49.5531 35.3635C49.4574 35.1859 49.222 35.0418 48.9094 34.9509L48.4478 34.8624C47.6431 34.7768 46.6051 34.9854 45.9816 35.6905C45.2259 36.5451 45.8255 34.8254 46.2075 33.8269C46.216 32.7738 46.2839 30.8199 46.6893 31.9248C47.0142 32.8105 47.9131 33.3902 48.7029 33.611L49.1771 33.7019Z" fill="#EDE759" fill-opacity="0.64"/>
<path d="M49.5099 34.3923C49.3623 35.162 49.5755 35.8497 49.986 35.9284C50.3965 36.007 50.8488 35.4469 50.9963 34.6773C51.1439 33.9076 50.9307 33.2199 50.5202 33.1413C50.1097 33.0626 49.6574 33.6227 49.5099 34.3923Z" fill="#EDE759" fill-opacity="0.64"/>
<path fill-rule="evenodd" clip-rule="evenodd" d="M45.8937 20.3089C46.155 20.1097 46.3248 19.8895 46.3517 19.6891C46.4169 19.202 46.763 19.9558 46.9859 20.5107C47.3488 20.9316 47.7044 21.4126 47.2977 21.2733C47.1069 21.208 46.8365 21.262 46.5456 21.4074L46.1456 21.6567C45.4971 22.1406 44.8773 22.9984 44.8987 23.9392C44.9245 25.0798 44.1964 23.4102 43.7985 22.4179C43.0894 21.6392 41.8124 20.1594 42.8603 20.6949C43.7001 21.1241 44.7533 20.9391 45.4829 20.5649L45.8937 20.3089Z" fill="#EDE759" fill-opacity="0.64"/>
<path d="M46.6064 20.59C47.0209 21.255 47.6444 21.6149 47.9991 21.3939C48.3538 21.1728 48.3053 20.4545 47.8908 19.7894C47.4763 19.1244 46.8528 18.7645 46.4981 18.9855C46.1434 19.2066 46.1919 19.9249 46.6064 20.59Z" fill="#EDE759" fill-opacity="0.64"/>
<path fill-rule="evenodd" clip-rule="evenodd" d="M22.1126 15.2091C21.9248 14.9398 21.7121 14.7609 21.5131 14.7256C21.0292 14.6398 21.7965 14.3261 22.3603 14.1269C22.7963 13.7821 23.2923 13.4469 23.1358 13.8474C23.0625 14.0352 23.105 14.3075 23.2378 14.6042L23.4704 15.0152C23.9263 15.6835 24.757 16.3388 25.6977 16.3573C26.8382 16.3798 25.1398 17.0364 24.1315 17.3918C23.3235 18.0673 21.7904 19.2809 22.3699 18.2565C22.8342 17.4358 22.6943 16.376 22.3515 15.6312L22.1126 15.2091Z" fill="#EDE759" fill-opacity="0.64"/>
<path d="M22.424 14.5093C23.106 14.1234 23.492 13.5156 23.2862 13.1519C23.0804 12.7881 22.3606 12.8061 21.6786 13.1921C20.9966 13.578 20.6106 14.1858 20.8164 14.5495C21.0222 14.9133 21.742 14.8953 22.424 14.5093Z" fill="#EDE759" fill-opacity="0.64"/>
<path fill-rule="evenodd" clip-rule="evenodd" d="M19.7966 49.4526C19.4322 50.0804 19.2225 50.6336 19.2388 50.9862C19.2784 51.8442 18.4907 51.0462 17.9626 50.4209C17.247 50.1762 16.5252 49.8263 17.2278 49.5678C17.557 49.4467 17.9797 49.0406 18.4086 48.464L18.9873 47.5857C19.896 46.0422 20.6458 43.9345 20.3302 42.4527C19.9472 40.6551 21.6295 42.4684 22.5727 43.5876C23.9579 43.9958 26.4759 44.8549 24.6127 45.2379C23.1204 45.5447 21.4649 47.0873 20.3909 48.5507L19.7966 49.4526Z" fill="#EDE759" fill-opacity="0.64"/>
<path d="M18.4776 49.9054C17.6487 49.3592 16.6739 49.3761 16.3002 49.9432C15.9264 50.5103 16.2954 51.4128 17.1242 51.959C17.9531 52.5052 18.9279 52.4883 19.3016 51.9212C19.6754 51.3541 19.3064 50.4516 18.4776 49.9054Z" fill="#EDE759" fill-opacity="0.64"/>
<path fill-rule="evenodd" clip-rule="evenodd" d="M49.5749 40.6695C50.1922 41.0552 50.7398 41.2834 51.0934 41.2785C51.9522 41.2664 51.1295 42.028 50.4876 42.5358C50.2199 43.2433 49.847 43.9539 49.6112 43.2432C49.5005 42.9096 49.1068 42.473 48.5425 42.0249L47.6907 41.4235C46.1768 40.4645 44.0919 39.6456 42.5993 39.9138C40.7905 40.2387 42.6568 38.6158 43.8057 37.7089C44.2581 36.3376 45.1978 33.8479 45.5208 35.7226C45.7797 37.2254 47.2707 38.9312 48.7 40.0517L49.5749 40.6695Z" fill="#EDE759" fill-opacity="0.64"/>
<path d="M49.9886 42.0048C49.4161 42.8157 49.4017 43.7906 49.9565 44.1823C50.5113 44.574 51.4252 44.2343 51.9978 43.4234C52.5703 42.6125 52.5847 41.6376 52.0299 41.2459C51.4751 40.8542 50.5612 41.1939 49.9886 42.0048Z" fill="#EDE759" fill-opacity="0.64"/>
<path fill-rule="evenodd" clip-rule="evenodd" d="M14.4978 17.8988C13.9068 17.4747 13.3751 17.2121 13.022 17.1945C12.1642 17.1516 13.0338 16.4442 13.7068 15.9785C14.0192 15.2895 14.4368 14.6042 14.6267 15.3285C14.7158 15.6683 15.0806 16.129 15.6148 16.6121L16.4277 17.2677C17.8772 18.3213 19.905 19.2713 21.4114 19.0992C23.2373 18.8905 21.2713 20.3908 20.0668 21.2223C19.5277 22.5619 18.4307 24.9866 18.2282 23.0951C18.0659 21.579 16.6874 19.7817 15.3328 18.5723L14.4978 17.8988Z" fill="#EDE759" fill-opacity="0.64"/>
<path d="M14.1709 16.5401C14.7941 15.7675 14.8707 14.7955 14.3421 14.3691C13.8134 13.9428 12.8797 14.2234 12.2565 14.9961C11.6333 15.7687 11.5567 16.7407 12.0853 17.1671C12.614 17.5934 13.5477 17.3128 14.1709 16.5401Z" fill="#EDE759" fill-opacity="0.64"/>
<path fill-rule="evenodd" clip-rule="evenodd" d="M43.0918 12.8189C43.4728 12.1981 43.6968 11.6481 43.6889 11.2943C43.6697 10.4356 44.4382 11.2521 44.9512 11.8898C45.661 12.1515 46.3746 12.5186 45.6659 12.7603C45.333 12.8738 44.8993 13.2715 44.4556 13.8401L43.8629 14.6945C42.9162 16.2164 42.1141 18.3087 42.3947 19.7994C42.7346 21.6056 41.0961 19.7527 40.1798 18.6113C38.8048 18.1703 36.3074 17.2512 38.1794 16.9127C39.6804 16.6413 41.3744 15.1355 42.4829 13.6966L43.0918 12.8189Z" fill="#EDE759" fill-opacity="0.64"/>
<path d="M44.4244 12.393C45.2399 12.9588 46.2149 12.9651 46.602 12.4071C46.9892 11.849 46.6418 10.938 45.8263 10.3722C45.0107 9.8064 44.0357 9.8001 43.6486 10.3581C43.2614 10.9162 43.6088 11.8272 44.4244 12.393Z" fill="#EDE759" fill-opacity="0.64"/>
<path fill-rule="evenodd" clip-rule="evenodd" d="M10.3907 35.4366C9.68143 35.6019 9.13291 35.8289 8.8868 36.0831C8.28941 36.7001 8.33016 35.5801 8.42333 34.767C8.11075 34.078 7.87023 33.3121 8.54032 33.6465C8.85493 33.8035 9.44247 33.8325 10.1586 33.7487L11.1839 33.5699C12.9319 33.1739 14.9838 32.2743 15.8472 31.0272C16.8932 29.5163 16.7264 31.9835 16.5583 33.4375C17.2108 34.7256 18.3122 37.1488 16.7557 36.0547C15.508 35.1776 13.2465 35.0305 11.4439 35.2529L10.3907 35.4366Z" fill="#EDE759" fill-opacity="0.64"/>
<path d="M9.15153 34.7878C8.98095 33.8099 8.30028 33.1118 7.63123 33.2285C6.96217 33.3453 6.55808 34.2326 6.72866 35.2104C6.89925 36.1883 7.57991 36.8864 8.24897 36.7697C8.91803 36.6529 9.32212 35.7656 9.15153 34.7878Z" fill="#EDE759" fill-opacity="0.64"/>
<path fill-rule="evenodd" clip-rule="evenodd" d="M52.395 26.3798C53.1038 26.2145 53.6519 25.9876 53.8979 25.7335C54.4954 25.1165 54.4545 26.237 54.3613 27.0501C54.6738 27.739 54.9141 28.5045 54.2441 28.1702C53.9296 28.0132 53.3425 27.9841 52.6269 28.0678L51.5994 28.247C49.8516 28.6431 47.8004 29.5426 46.9373 30.7894C45.8912 32.3005 46.058 29.8327 46.2261 28.3787C45.5736 27.0905 44.4727 24.668 46.0289 25.7619C47.2764 26.6388 49.5371 26.786 51.3396 26.5639L52.395 26.3798Z" fill="#EDE759" fill-opacity="0.64"/>
<path d="M53.633 27.0289C53.8036 28.0068 54.4842 28.7049 55.1533 28.5882C55.8223 28.4714 56.2264 27.5841 56.0558 26.6063C55.8853 25.6284 55.2046 24.9303 54.5355 25.047C53.8665 25.1638 53.4624 26.0511 53.633 27.0289Z" fill="#EDE759" fill-opacity="0.64"/>
<path fill-rule="evenodd" clip-rule="evenodd" d="M36.2864 51.6237C36.4516 52.3324 36.6786 52.8805 36.9326 53.1265C37.5497 53.724 36.4292 53.6831 35.6161 53.5899C34.9272 53.9024 34.1616 54.1427 34.496 53.4728C34.6529 53.1583 34.682 52.5712 34.5984 51.8556L34.4191 50.828C34.023 49.0803 33.1235 47.0291 31.8767 46.1659C30.3657 45.1198 32.8334 45.2867 34.2874 45.4548C35.5756 44.8023 37.9981 43.7013 36.9042 45.2576C36.0273 46.5051 35.8801 48.7657 36.1022 50.5682L36.2864 51.6237Z" fill="#EDE759" fill-opacity="0.64"/>
<path d="M35.6374 52.8617C34.6595 53.0323 33.9614 53.7129 34.0781 54.382C34.1949 55.051 35.0822 55.4551 36.06 55.2845C37.0379 55.1139 37.736 54.4333 37.6193 53.7642C37.5025 53.0952 36.6152 52.6911 35.6374 52.8617Z" fill="#EDE759" fill-opacity="0.64"/>
<path d="M25.9633 26.5745C26.9926 26.395 27.6815 25.415 27.5019 24.3857C27.3224 23.3564 26.3424 22.6675 25.3131 22.8471C24.2838 23.0266 23.5949 24.0066 23.7745 25.0359C23.954 26.0652 24.934 26.7541 25.9633 26.5745Z" fill="#E8F5FF"/>
<path d="M33.4229 42.3653C34.9154 42.105 35.9143 40.684 35.6539 39.1915C35.3936 37.699 33.9726 36.7001 32.4801 36.9605C30.9876 37.2208 29.9887 38.6418 30.2491 40.1343C30.5094 41.6268 31.9304 42.6257 33.4229 42.3653Z" fill="#E8F5FF"/>
<path d="M33.065 32.0573C33.8885 31.9136 34.4395 31.1297 34.2959 30.3062C34.1522 29.4827 33.3682 28.9317 32.5448 29.0753C31.7213 29.219 31.1703 30.0029 31.3139 30.8264C31.4576 31.6499 32.2415 32.2009 33.065 32.0573Z" fill="#E8F5FF"/>
<path d="M22.1603 37.8005C23.1896 37.621 23.8785 36.641 23.6989 35.6117C23.5194 34.5824 22.5394 33.8935 21.5101 34.0731C20.4808 34.2526 19.7919 35.2326 19.9715 36.2619C20.151 37.2912 21.131 37.9801 22.1603 37.8005Z" fill="#E8F5FF"/>
<path d="M38.3464 27.1029C39.7874 26.8516 40.7518 25.4796 40.5004 24.0385C40.2491 22.5975 38.8771 21.6331 37.436 21.8845C35.995 22.1358 35.0306 23.5078 35.282 24.9489C35.5333 26.3899 36.9053 27.3543 38.3464 27.1029Z" fill="#E8F5FF"/>
<path d="M51.2046 8.93087L8.93103 51.2044L11.6066 53.8799L53.8801 11.6064L51.2046 8.93087Z" fill="#E8F5FF"/>
<path d="M103.44 24.4V26.68L100.88 27.84V37.04C99.4933 37.4933 97.96 37.84 96.28 38.08C94.6267 38.3467 93.0533 38.48 91.56 38.48C86.92 38.48 83.44 37.36 81.12 35.12C78.8267 32.88 77.68 29.3067 77.68 24.4C77.68 19.52 78.84 15.96 81.16 13.72C83.5067 11.4533 86.9733 10.32 91.56 10.32C94.4933 10.32 97.6 10.68 100.88 11.4V18.48H98.08L97.4 13.96C95.5067 13.5067 93.5467 13.28 91.52 13.28C88.9867 13.28 86.9733 13.6267 85.48 14.32C84.0133 15.0133 82.9467 16.1733 82.28 17.8C81.6133 19.4 81.28 21.6 81.28 24.4C81.28 27.2533 81.6133 29.48 82.28 31.08C82.9467 32.68 84 33.8267 85.44 34.52C86.9067 35.1867 88.8933 35.52 91.4 35.52C93.6667 35.52 95.6933 35.2533 97.48 34.72V27.84L94.92 26.68V24.4H103.44ZM126.882 22.8C129.096 23.2267 130.736 23.68 131.802 24.16C132.896 24.64 133.682 25.36 134.162 26.32C134.669 27.2533 134.922 28.6133 134.922 30.4C134.922 32.4 134.562 33.9733 133.842 35.12C133.122 36.2667 131.989 37.0933 130.442 37.6C128.896 38.08 126.789 38.32 124.122 38.32C120.522 38.32 117.189 37.92 114.122 37.12V30H116.882L117.562 34.6C119.696 35.1067 121.922 35.36 124.242 35.36C126.216 35.36 127.709 35.2133 128.722 34.92C129.762 34.6267 130.469 34.1733 130.842 33.56C131.216 32.92 131.402 32.0533 131.402 30.96C131.402 29.6267 131.242 28.6933 130.922 28.16C130.602 27.6267 129.962 27.2133 129.002 26.92C128.042 26.6267 126.189 26.2267 123.442 25.72L122.442 25.52C120.256 25.12 118.562 24.64 117.362 24.08C116.189 23.4933 115.349 22.7333 114.842 21.8C114.362 20.8667 114.122 19.6267 114.122 18.08C114.122 16.1867 114.469 14.6933 115.162 13.6C115.882 12.48 117.002 11.68 118.522 11.2C120.042 10.72 122.069 10.48 124.602 10.48C127.722 10.48 130.949 10.8267 134.282 11.52V18.52H131.642L131.002 14.08C128.976 13.6533 126.789 13.44 124.442 13.44C122.602 13.44 121.189 13.5867 120.202 13.88C119.216 14.1467 118.536 14.5733 118.162 15.16C117.816 15.72 117.642 16.4933 117.642 17.48C117.642 18.7067 117.816 19.5867 118.162 20.12C118.536 20.6533 119.202 21.0667 120.162 21.36C121.149 21.6533 122.976 22.0533 125.642 22.56L126.882 22.8ZM160.248 13.28C157.848 13.28 155.928 13.64 154.488 14.36C153.048 15.0533 151.981 16.2 151.288 17.8C150.621 19.4 150.288 21.56 150.288 24.28C150.288 27.0533 150.621 29.2667 151.288 30.92C151.981 32.5467 153.034 33.72 154.448 34.44C155.861 35.16 157.714 35.52 160.008 35.52C161.474 35.52 162.981 35.4 164.528 35.16C166.101 34.8933 167.541 34.48 168.848 33.92V36.88C167.728 37.3867 166.381 37.7733 164.808 38.04C163.234 38.3333 161.634 38.48 160.008 38.48C151.128 38.48 146.688 33.7867 146.688 24.4C146.688 19.52 147.861 15.96 150.208 13.72C152.554 11.4533 156.008 10.32 160.568 10.32C163.234 10.32 165.994 10.64 168.848 11.28V18.36H166.048L165.368 13.8C163.714 13.4533 162.008 13.28 160.248 13.28Z" fill="#E8F5FF"/>
<path d="M103.44 24.4H104.44V23.4H103.44V24.4ZM103.44 26.68L103.853 27.5909L104.44 27.3247V26.68H103.44ZM100.88 27.84L100.467 26.9291L99.88 27.1953V27.84H100.88ZM100.88 37.04L101.191 37.9905L101.88 37.7652V37.04H100.88ZM96.28 38.08L96.1386 37.0901L96.1297 37.0913L96.1208 37.0928L96.28 38.08ZM81.12 35.12L80.4212 35.8354L80.4254 35.8394L81.12 35.12ZM81.16 13.72L81.8546 14.4394L81.8547 14.4393L81.16 13.72ZM100.88 11.4H101.88V10.5957L101.094 10.4233L100.88 11.4ZM100.88 18.48V19.48H101.88V18.48H100.88ZM98.08 18.48L97.0911 18.6288L97.2192 19.48H98.08V18.48ZM97.4 13.96L98.3889 13.8112L98.2886 13.1445L97.6329 12.9875L97.4 13.96ZM85.48 14.32L85.0589 13.413L85.0526 13.4159L85.48 14.32ZM82.28 17.8L83.2031 18.1846L83.2053 18.1792L82.28 17.8ZM85.44 34.52L85.0062 35.421L85.0161 35.4258L85.0262 35.4304L85.44 34.52ZM97.48 34.72L97.766 35.6782L98.48 35.4651V34.72H97.48ZM97.48 27.84H98.48V27.1953L97.8927 26.9291L97.48 27.84ZM94.92 26.68H93.92V27.3247L94.5073 27.5909L94.92 26.68ZM94.92 24.4V23.4H93.92V24.4H94.92ZM102.44 24.4V26.68H104.44V24.4H102.44ZM103.027 25.7691L100.467 26.9291L101.293 28.7509L103.853 27.5909L103.027 25.7691ZM99.88 27.84V37.04H101.88V27.84H99.88ZM100.569 36.0895C99.2458 36.5222 97.7702 36.857 96.1386 37.0901L96.4214 39.0699C98.1498 38.823 99.7408 38.4645 101.191 37.9905L100.569 36.0895ZM96.1208 37.0928C94.5139 37.3519 92.994 37.48 91.56 37.48V39.48C93.1126 39.48 94.7395 39.3414 96.4392 39.0672L96.1208 37.0928ZM91.56 37.48C87.0655 37.48 83.8799 36.3947 81.8146 34.4006L80.4254 35.8394C83.0001 38.3253 86.7745 39.48 91.56 39.48V37.48ZM81.8187 34.4046C79.7996 32.4324 78.68 29.1779 78.68 24.4H76.68C76.68 29.4354 77.8538 33.3276 80.4213 35.8354L81.8187 34.4046ZM78.68 24.4C78.68 19.6534 79.8106 16.4129 81.8546 14.4394L80.4654 13.0006C77.8694 15.5071 76.68 19.3866 76.68 24.4H78.68ZM81.8547 14.4393C83.9505 12.4149 87.1265 11.32 91.56 11.32V9.32C86.8202 9.32 83.0628 10.4918 80.4653 13.0007L81.8547 14.4393ZM91.56 11.32C94.4117 11.32 97.4461 11.67 100.666 12.3767L101.094 10.4233C97.7539 9.68997 94.5749 9.32 91.56 9.32V11.32ZM99.88 11.4V18.48H101.88V11.4H99.88ZM100.88 17.48H98.08V19.48H100.88V17.48ZM99.0689 18.3312L98.3889 13.8112L96.4111 14.1088L97.0911 18.6288L99.0689 18.3312ZM97.6329 12.9875C95.6602 12.5152 93.6219 12.28 91.52 12.28V14.28C93.4715 14.28 95.3531 14.4982 97.1671 14.9325L97.6329 12.9875ZM91.52 12.28C88.9119 12.28 86.736 12.6343 85.0589 13.413L85.9011 15.227C87.2107 14.619 89.0614 14.28 91.52 14.28V12.28ZM85.0526 13.4159C83.3406 14.2253 82.1074 15.5842 81.3547 17.4208L83.2053 18.1792C83.7859 16.7625 84.6861 15.8014 85.9074 15.2241L85.0526 13.4159ZM81.3569 17.4154C80.6178 19.1893 80.28 21.5394 80.28 24.4H82.28C82.28 21.6606 82.6089 19.6107 83.2031 18.1846L81.3569 17.4154ZM80.28 24.4C80.28 27.3109 80.6171 29.689 81.3569 31.4646L83.2031 30.6954C82.6096 29.271 82.28 27.1957 82.28 24.4H80.28ZM81.3569 31.4646C82.1092 33.2702 83.3259 34.612 85.0062 35.421L85.8738 33.619C84.6741 33.0414 83.7841 32.0898 83.2031 30.6954L81.3569 31.4646ZM85.0262 35.4304C86.6749 36.1798 88.8218 36.52 91.4 36.52V34.52C88.9649 34.52 87.1384 34.1936 85.8538 33.6096L85.0262 35.4304ZM91.4 36.52C93.7434 36.52 95.8691 36.2445 97.766 35.6782L97.194 33.7618C95.5176 34.2622 93.5899 34.52 91.4 34.52V36.52ZM98.48 34.72V27.84H96.48V34.72H98.48ZM97.8927 26.9291L95.3327 25.7691L94.5073 27.5909L97.0673 28.7509L97.8927 26.9291ZM95.92 26.68V24.4H93.92V26.68H95.92ZM94.92 25.4H103.44V23.4H94.92V25.4ZM126.882 22.8L126.692 23.7818L126.693 23.7819L126.882 22.8ZM131.802 24.16L131.392 25.072L131.4 25.0756L131.802 24.16ZM134.162 26.32L133.268 26.7672L133.275 26.7823L133.283 26.7971L134.162 26.32ZM133.842 35.12L132.995 34.5882L133.842 35.12ZM130.442 37.6L130.739 38.5551L130.746 38.5527L130.753 38.5503L130.442 37.6ZM114.122 37.12H113.122V37.8926L113.87 38.0876L114.122 37.12ZM114.122 30V29H113.122V30H114.122ZM116.882 30L117.871 29.8538L117.745 29H116.882V30ZM117.562 34.6L116.573 34.7462L116.672 35.4164L117.331 35.5729L117.562 34.6ZM128.722 34.92L128.451 33.9575L128.444 33.9594L128.722 34.92ZM130.842 33.56L131.696 34.0799L131.701 34.072L131.706 34.0639L130.842 33.56ZM130.922 28.16L130.065 28.6745L130.922 28.16ZM129.002 26.92L129.294 25.9636L129.002 26.92ZM123.442 25.72L123.246 26.7006L123.253 26.702L123.261 26.7034L123.442 25.72ZM122.442 25.52L122.638 24.5394L122.63 24.5378L122.622 24.5363L122.442 25.52ZM117.362 24.08L116.915 24.9744L116.927 24.9805L116.939 24.9862L117.362 24.08ZM114.842 21.8L113.953 22.2573L113.958 22.2673L113.963 22.2771L114.842 21.8ZM115.162 13.6L114.321 13.0592L114.318 13.0645L115.162 13.6ZM118.522 11.2L118.221 10.2464L118.522 11.2ZM134.282 11.52H135.282V10.7066L134.486 10.541L134.282 11.52ZM134.282 18.52V19.52H135.282V18.52H134.282ZM131.642 18.52L130.652 18.6627L130.776 19.52H131.642V18.52ZM131.002 14.08L131.992 13.9373L131.892 13.2455L131.208 13.1014L131.002 14.08ZM120.202 13.88L120.463 14.8454L120.475 14.8421L120.487 14.8385L120.202 13.88ZM118.162 15.16L117.318 14.6231L117.312 14.6336L118.162 15.16ZM118.162 20.12L117.324 20.665L117.333 20.6794L117.343 20.6935L118.162 20.12ZM120.162 21.36L119.87 22.3164L119.877 22.3185L120.162 21.36ZM125.642 22.56L125.832 21.5782L125.829 21.5776L125.642 22.56ZM126.693 23.7819C128.886 24.2048 130.434 24.6409 131.392 25.0719L132.213 23.2481C131.037 22.7191 129.305 22.2486 127.071 21.8181L126.693 23.7819ZM131.4 25.0756C132.305 25.473 132.904 26.0398 133.268 26.7672L135.057 25.8728C134.46 24.6802 133.486 23.807 132.204 23.2444L131.4 25.0756ZM133.283 26.7971C133.674 27.5159 133.922 28.68 133.922 30.4H135.922C135.922 28.5466 135.664 26.9907 135.041 25.8429L133.283 26.7971ZM133.922 30.4C133.922 32.2961 133.578 33.6597 132.995 34.5882L134.689 35.6518C135.546 34.287 135.922 32.5039 135.922 30.4H133.922ZM132.995 34.5882C132.423 35.4992 131.502 36.2004 130.131 36.6497L130.753 38.5503C132.475 37.9862 133.821 37.0342 134.689 35.6518L132.995 34.5882ZM130.146 36.6449C128.737 37.0822 126.744 37.32 124.122 37.32V39.32C126.833 39.32 129.054 39.0778 130.739 38.5551L130.146 36.6449ZM124.122 37.32C120.596 37.32 117.349 36.9282 114.375 36.1524L113.87 38.0876C117.029 38.9118 120.448 39.32 124.122 39.32V37.32ZM115.122 37.12V30H113.122V37.12H115.122ZM114.122 31H116.882V29H114.122V31ZM115.893 30.1462L116.573 34.7462L118.551 34.4538L117.871 29.8538L115.893 30.1462ZM117.331 35.5729C119.544 36.0986 121.849 36.36 124.242 36.36V34.36C121.996 34.36 119.847 34.1147 117.793 33.6271L117.331 35.5729ZM124.242 36.36C126.243 36.36 127.849 36.2137 129 35.8806L128.444 33.9594C127.568 34.213 126.188 34.36 124.242 34.36V36.36ZM128.994 35.8824C130.157 35.5543 131.139 34.996 131.696 34.0799L129.988 33.0401C129.799 33.3506 129.367 33.699 128.451 33.9576L128.994 35.8824ZM131.706 34.0639C132.201 33.215 132.402 32.1519 132.402 30.96H130.402C130.402 31.9548 130.23 32.625 129.978 33.0561L131.706 34.0639ZM132.402 30.96C132.402 29.6093 132.251 28.4316 131.78 27.6455L130.065 28.6745C130.233 28.955 130.402 29.644 130.402 30.96H132.402ZM131.78 27.6455C131.274 26.8028 130.354 26.2874 129.294 25.9636L128.71 27.8764C129.571 28.1393 129.93 28.4505 130.065 28.6745L131.78 27.6455ZM129.294 25.9636C128.272 25.6512 126.364 25.2421 123.624 24.7366L123.261 26.7034C126.014 27.2112 127.813 27.6022 128.71 27.8764L129.294 25.9636ZM123.638 24.7394L122.638 24.5394L122.246 26.5006L123.246 26.7006L123.638 24.7394ZM122.622 24.5363C120.471 24.1428 118.873 23.6816 117.785 23.1738L116.939 24.9862C118.251 25.5984 120.04 26.0972 122.262 26.5037L122.622 24.5363ZM117.809 23.1856C116.776 22.6687 116.109 22.0377 115.721 21.3229L113.963 22.2771C114.589 23.429 115.602 24.3179 116.915 24.9744L117.809 23.1856ZM115.731 21.3427C115.351 20.6019 115.122 19.5372 115.122 18.08H113.122C113.122 19.7162 113.374 21.1315 113.953 22.2573L115.731 21.3427ZM115.122 18.08C115.122 16.2936 115.452 15.0109 116.007 14.1355L114.318 13.0645C113.486 14.3758 113.122 16.0797 113.122 18.08H115.122ZM116.003 14.1408C116.573 13.2541 117.48 12.5777 118.823 12.1536L118.221 10.2464C116.524 10.7823 115.191 11.7059 114.321 13.0592L116.003 14.1408ZM118.823 12.1536C120.206 11.717 122.118 11.48 124.602 11.48V9.48C122.019 9.48 119.878 9.72303 118.221 10.2464L118.823 12.1536ZM124.602 11.48C127.648 11.48 130.806 11.8184 134.079 12.499L134.486 10.541C131.092 9.83494 127.796 9.48 124.602 9.48V11.48ZM133.282 11.52V18.52H135.282V11.52H133.282ZM134.282 17.52H131.642V19.52H134.282V17.52ZM132.632 18.3773L131.992 13.9373L130.012 14.2227L130.652 18.6627L132.632 18.3773ZM131.208 13.1014C129.106 12.6588 126.849 12.44 124.442 12.44V14.44C126.729 14.44 128.846 14.6479 130.796 15.0585L131.208 13.1014ZM124.442 12.44C122.569 12.44 121.042 12.5871 119.917 12.9215L120.487 14.8385C121.336 14.5862 122.636 14.44 124.442 14.44V12.44ZM119.941 12.9146C118.825 13.2163 117.877 13.7456 117.319 14.6231L119.006 15.6969C119.194 15.4011 119.606 15.077 120.463 14.8454L119.941 12.9146ZM117.312 14.6336C116.83 15.4119 116.642 16.3937 116.642 17.48H118.642C118.642 16.593 118.801 16.0281 119.012 15.6864L117.312 14.6336ZM116.642 17.48C116.642 18.7494 116.812 19.8776 117.324 20.665L119.001 19.575C118.819 19.2957 118.642 18.6639 118.642 17.48H116.642ZM117.343 20.6935C117.897 21.4853 118.806 21.9912 119.87 22.3164L120.454 20.4036C119.599 20.1421 119.174 19.8214 118.981 19.5465L117.343 20.6935ZM119.877 22.3185C120.919 22.6282 122.792 23.0364 125.456 23.5424L125.829 21.5776C123.159 21.0702 121.379 20.6785 120.447 20.4015L119.877 22.3185ZM125.452 23.5418L126.692 23.7818L127.072 21.8182L125.832 21.5782L125.452 23.5418ZM154.488 14.36L154.922 15.261L154.928 15.2578L154.935 15.2544L154.488 14.36ZM151.288 17.8L150.37 17.4024L150.365 17.4154L151.288 17.8ZM151.288 30.92L150.36 31.294L150.364 31.3031L150.368 31.3121L151.288 30.92ZM154.448 34.44L154.902 33.549L154.448 34.44ZM164.528 35.16L164.681 36.1483L164.695 36.1459L164.528 35.16ZM168.848 33.92H169.848V32.4035L168.454 33.0009L168.848 33.92ZM168.848 36.88L169.26 37.7911L169.848 37.5252V36.88H168.848ZM164.808 38.04L164.641 37.0541L164.633 37.0554L164.625 37.0569L164.808 38.04ZM150.208 13.72L150.898 14.4434L150.903 14.4393L150.208 13.72ZM168.848 11.28H169.848V10.4795L169.067 10.3042L168.848 11.28ZM168.848 18.36V19.36H169.848V18.36H168.848ZM166.048 18.36L165.059 18.5075L165.186 19.36H166.048V18.36ZM165.368 13.8L166.357 13.6525L166.254 12.9641L165.573 12.8213L165.368 13.8ZM160.248 12.28C157.762 12.28 155.671 12.6505 154.041 13.4656L154.935 15.2544C156.185 14.6295 157.933 14.28 160.248 14.28V12.28ZM154.054 13.459C152.377 14.2664 151.15 15.6036 150.37 17.4024L152.205 18.1976C152.813 16.7964 153.718 15.8403 154.922 15.261L154.054 13.459ZM150.365 17.4154C149.627 19.1867 149.288 21.4948 149.288 24.28H151.288C151.288 21.6252 151.616 19.6133 152.211 18.1846L150.365 17.4154ZM149.288 24.28C149.288 27.118 149.627 29.4745 150.36 31.294L152.215 30.546C151.616 29.0589 151.288 26.9886 151.288 24.28H149.288ZM150.368 31.3121C151.142 33.1282 152.347 34.4922 153.994 35.331L154.902 33.549C153.722 32.9478 152.82 31.9652 152.208 30.5279L150.368 31.3121ZM153.994 35.331C155.596 36.1474 157.622 36.52 160.008 36.52V34.52C157.807 34.52 156.126 34.1726 154.902 33.549L153.994 35.331ZM160.008 36.52C161.529 36.52 163.087 36.3955 164.681 36.1482L164.374 34.1718C162.875 34.4045 161.42 34.52 160.008 34.52V36.52ZM164.695 36.1459C166.337 35.8676 167.854 35.4338 169.242 34.8391L168.454 33.0009C167.228 33.5262 165.865 33.919 164.361 34.1741L164.695 36.1459ZM167.848 33.92V36.88H169.848V33.92H167.848ZM168.436 35.9689C167.413 36.4315 166.153 36.7977 164.641 37.0541L164.975 39.0259C166.609 38.7489 168.043 38.3418 169.26 37.7911L168.436 35.9689ZM164.625 37.0569C163.113 37.3388 161.574 37.48 160.008 37.48V39.48C161.695 39.48 163.356 39.3278 164.991 39.0231L164.625 37.0569ZM160.008 37.48C155.737 37.48 152.713 36.354 150.744 34.2728C148.766 32.1812 147.688 28.9526 147.688 24.4H145.688C145.688 29.2341 146.83 33.0455 149.291 35.6472C151.763 38.2594 155.399 39.48 160.008 39.48V37.48ZM147.688 24.4C147.688 19.6563 148.83 16.4173 150.898 14.4434L149.517 12.9966C146.892 15.5027 145.688 19.3837 145.688 24.4H147.688ZM150.903 14.4393C152.999 12.414 156.163 11.32 160.568 11.32V9.32C155.853 9.32 152.11 10.4927 149.513 13.0007L150.903 14.4393ZM160.568 11.32C163.154 11.32 165.841 11.6303 168.629 12.2558L169.067 10.3042C166.148 9.64966 163.315 9.32 160.568 9.32V11.32ZM167.848 11.28V18.36H169.848V11.28H167.848ZM168.848 17.36H166.048V19.36H168.848V17.36ZM167.037 18.2125L166.357 13.6525L164.379 13.9475L165.059 18.5075L167.037 18.2125ZM165.573 12.8213C163.849 12.4599 162.074 12.28 160.248 12.28V14.28C161.942 14.28 163.58 14.4468 165.163 14.7787L165.573 12.8213Z" fill="#E8F5FF"/>
<path d="M74.29 51.9V52.755L73.33 53.19V56.64C72.81 56.81 72.235 56.94 71.605 57.03C70.985 57.13 70.395 57.18 69.835 57.18C68.095 57.18 66.79 56.76 65.92 55.92C65.06 55.08 64.63 53.74 64.63 51.9C64.63 50.07 65.065 48.735 65.935 47.895C66.815 47.045 68.115 46.62 69.835 46.62C70.935 46.62 72.1 46.755 73.33 47.025V49.68H72.28L72.025 47.985C71.315 47.815 70.58 47.73 69.82 47.73C68.87 47.73 68.115 47.86 67.555 48.12C67.005 48.38 66.605 48.815 66.355 49.425C66.105 50.025 65.98 50.85 65.98 51.9C65.98 52.97 66.105 53.805 66.355 54.405C66.605 55.005 67 55.435 67.54 55.695C68.09 55.945 68.835 56.07 69.775 56.07C70.625 56.07 71.385 55.97 72.055 55.77V53.19L71.095 52.755V51.9H74.29ZM79.0158 49.26C80.1658 49.26 81.0858 49.58 81.7758 50.22C82.4758 50.85 82.8258 51.855 82.8258 53.235C82.8258 54.615 82.4758 55.625 81.7758 56.265C81.0858 56.895 80.1658 57.21 79.0158 57.21C77.8658 57.21 76.9408 56.895 76.2408 56.265C75.5508 55.625 75.2058 54.615 75.2058 53.235C75.2058 51.855 75.5508 50.85 76.2408 50.22C76.9408 49.58 77.8658 49.26 79.0158 49.26ZM79.0158 50.34C78.4158 50.34 77.9358 50.425 77.5758 50.595C77.2258 50.765 76.9608 51.06 76.7808 51.48C76.6108 51.9 76.5258 52.485 76.5258 53.235C76.5258 53.985 76.6108 54.57 76.7808 54.99C76.9608 55.41 77.2258 55.705 77.5758 55.875C77.9358 56.045 78.4158 56.13 79.0158 56.13C79.6158 56.13 80.0908 56.045 80.4408 55.875C80.8008 55.705 81.0658 55.41 81.2358 54.99C81.4158 54.57 81.5058 53.985 81.5058 53.235C81.5058 52.485 81.4158 51.9 81.2358 51.48C81.0658 51.06 80.8008 50.765 80.4408 50.595C80.0908 50.425 79.6158 50.34 79.0158 50.34ZM85.6585 46.185C85.9685 46.185 86.2135 46.275 86.3935 46.455C86.5835 46.635 86.6785 46.89 86.6785 47.22C86.6785 47.55 86.5835 47.805 86.3935 47.985C86.2135 48.165 85.9685 48.255 85.6585 48.255C85.3485 48.255 85.0985 48.165 84.9085 47.985C84.7285 47.805 84.6385 47.55 84.6385 47.22C84.6385 46.89 84.7285 46.635 84.9085 46.455C85.0985 46.275 85.3485 46.185 85.6585 46.185ZM86.4085 55.725L87.4285 56.175V57H84.1285V56.175L85.1485 55.725V50.745L84.1285 50.325V49.47H86.4085V55.725ZM96.5752 56.175V57H94.7902L94.4002 55.92C93.9902 56.34 93.5452 56.65 93.0652 56.85C92.5952 57.05 92.0652 57.15 91.4752 57.15C90.5152 57.15 89.8052 56.965 89.3452 56.595C88.8852 56.225 88.6552 55.625 88.6552 54.795C88.6552 53.915 88.9302 53.28 89.4802 52.89C90.0302 52.49 90.9152 52.29 92.1352 52.29C92.6152 52.29 93.0352 52.335 93.3952 52.425C93.7652 52.505 94.0652 52.605 94.2952 52.725V52.14C94.2952 51.68 94.2352 51.325 94.1152 51.075C94.0052 50.815 93.8002 50.63 93.5002 50.52C93.2102 50.4 92.7852 50.34 92.2252 50.34C91.2152 50.34 90.1652 50.46 89.0752 50.7V49.62C90.1852 49.38 91.2452 49.26 92.2552 49.26C93.1952 49.26 93.9002 49.355 94.3702 49.545C94.8502 49.735 95.1652 50.01 95.3152 50.37C95.4752 50.73 95.5552 51.23 95.5552 51.87V55.725L96.5752 56.175ZM89.9752 54.705C89.9752 55.195 90.0952 55.545 90.3352 55.755C90.5852 55.965 91.0352 56.07 91.6852 56.07C92.1652 56.07 92.6252 55.985 93.0652 55.815C93.5152 55.635 93.9252 55.39 94.2952 55.08V53.58C93.7352 53.42 93.0602 53.34 92.2702 53.34C91.4002 53.34 90.8002 53.45 90.4702 53.67C90.1402 53.89 89.9752 54.235 89.9752 54.705ZM92.8102 48.42H91.5502L93.1702 45.66H94.9702L92.8102 48.42ZM101.98 52.74C102.67 52.87 103.185 53.015 103.525 53.175C103.865 53.335 104.095 53.545 104.215 53.805C104.335 54.055 104.395 54.41 104.395 54.87C104.395 55.44 104.29 55.895 104.08 56.235C103.88 56.565 103.52 56.81 103 56.97C102.49 57.13 101.765 57.21 100.825 57.21C100.345 57.21 99.8805 57.185 99.4305 57.135C98.9805 57.095 98.4355 57.02 97.7955 56.91V54.75H98.6955L99.1305 56.025C99.6605 56.115 100.24 56.16 100.87 56.16C101.49 56.16 101.955 56.13 102.265 56.07C102.575 56 102.785 55.89 102.895 55.74C103.015 55.58 103.075 55.35 103.075 55.05C103.075 54.78 103.02 54.58 102.91 54.45C102.8 54.31 102.635 54.21 102.415 54.15C102.205 54.09 101.835 54.02 101.305 53.94L100.285 53.76C99.5755 53.63 99.0405 53.485 98.6805 53.325C98.3205 53.165 98.0655 52.95 97.9155 52.68C97.7755 52.4 97.7055 52.01 97.7055 51.51C97.7055 50.96 97.8005 50.525 97.9905 50.205C98.1905 49.885 98.5305 49.65 99.0105 49.5C99.4905 49.34 100.165 49.26 101.035 49.26C101.905 49.26 102.935 49.36 104.125 49.56V51.645H103.255L102.85 50.475C102.19 50.365 101.565 50.31 100.975 50.31C100.455 50.31 100.055 50.345 99.7755 50.415C99.4955 50.485 99.3005 50.595 99.1905 50.745C99.0805 50.895 99.0255 51.11 99.0255 51.39C99.0255 51.67 99.0855 51.88 99.2055 52.02C99.3255 52.15 99.5205 52.255 99.7905 52.335C100.06 52.405 100.53 52.495 101.2 52.605C101.45 52.635 101.71 52.68 101.98 52.74ZM114.695 51.3C115.525 51.46 116.14 51.63 116.54 51.81C116.95 51.99 117.245 52.26 117.425 52.62C117.615 52.97 117.71 53.48 117.71 54.15C117.71 54.9 117.575 55.49 117.305 55.92C117.035 56.35 116.61 56.66 116.03 56.85C115.45 57.03 114.66 57.12 113.66 57.12C112.31 57.12 111.06 56.97 109.91 56.67V54H110.945L111.2 55.725C112 55.915 112.835 56.01 113.705 56.01C114.445 56.01 115.005 55.955 115.385 55.845C115.775 55.735 116.04 55.565 116.18 55.335C116.32 55.095 116.39 54.77 116.39 54.36C116.39 53.86 116.33 53.51 116.21 53.31C116.09 53.11 115.85 52.955 115.49 52.845C115.13 52.735 114.435 52.585 113.405 52.395L113.03 52.32C112.21 52.17 111.575 51.99 111.125 51.78C110.685 51.56 110.37 51.275 110.18 50.925C110 50.575 109.91 50.11 109.91 49.53C109.91 48.82 110.04 48.26 110.3 47.85C110.57 47.43 110.99 47.13 111.56 46.95C112.13 46.77 112.89 46.68 113.84 46.68C115.01 46.68 116.22 46.81 117.47 47.07V49.695H116.48L116.24 48.03C115.48 47.87 114.66 47.79 113.78 47.79C113.09 47.79 112.56 47.845 112.19 47.955C111.82 48.055 111.565 48.215 111.425 48.435C111.295 48.645 111.23 48.935 111.23 49.305C111.23 49.765 111.295 50.095 111.425 50.295C111.565 50.495 111.815 50.65 112.175 50.76C112.545 50.87 113.23 51.02 114.23 51.21L114.695 51.3ZM122.872 49.26C123.892 49.26 124.717 49.58 125.347 50.22C125.987 50.85 126.307 51.79 126.307 53.04V53.64H120.427C120.477 54.31 120.597 54.825 120.787 55.185C120.987 55.535 121.272 55.78 121.642 55.92C122.022 56.06 122.542 56.13 123.202 56.13C124.152 56.13 125.092 56.015 126.022 55.785V56.865C125.632 56.965 125.177 57.045 124.657 57.105C124.137 57.175 123.642 57.21 123.172 57.21C121.842 57.21 120.832 56.91 120.142 56.31C119.452 55.71 119.107 54.685 119.107 53.235C119.107 51.885 119.447 50.885 120.127 50.235C120.807 49.585 121.722 49.26 122.872 49.26ZM122.797 50.34C122.017 50.34 121.447 50.515 121.087 50.865C120.727 51.215 120.512 51.785 120.442 52.575H124.972C124.912 51.835 124.707 51.28 124.357 50.91C124.007 50.53 123.487 50.34 122.797 50.34ZM141.199 56.175V57H138.919V52.035C138.919 51.445 138.789 51.02 138.529 50.76C138.269 50.49 137.884 50.355 137.374 50.355C137.024 50.355 136.699 50.4 136.399 50.49C136.109 50.57 135.629 50.73 134.959 50.97V55.725L135.979 56.175V57H133.699V52.035C133.699 51.445 133.569 51.02 133.309 50.76C133.049 50.49 132.664 50.355 132.154 50.355C131.814 50.355 131.494 50.4 131.194 50.49C130.904 50.57 130.419 50.73 129.739 50.97V55.725L130.759 56.175V57H127.459V56.175L128.479 55.725V50.745L127.459 50.325V49.47H129.124L129.514 50.085C130.104 49.785 130.634 49.575 131.104 49.455C131.574 49.325 132.059 49.26 132.559 49.26C133.059 49.26 133.474 49.33 133.804 49.47C134.144 49.61 134.424 49.83 134.644 50.13C135.244 49.82 135.784 49.6 136.264 49.47C136.754 49.33 137.259 49.26 137.779 49.26C138.379 49.26 138.854 49.36 139.204 49.56C139.554 49.75 139.804 50.06 139.954 50.49C140.104 50.91 140.179 51.48 140.179 52.2V55.725L141.199 56.175ZM151.644 47.73C150.744 47.73 150.024 47.865 149.484 48.135C148.944 48.395 148.544 48.825 148.284 49.425C148.034 50.025 147.909 50.835 147.909 51.855C147.909 52.895 148.034 53.725 148.284 54.345C148.544 54.955 148.939 55.395 149.469 55.665C149.999 55.935 150.694 56.07 151.554 56.07C152.104 56.07 152.669 56.025 153.249 55.935C153.839 55.835 154.379 55.68 154.869 55.47V56.58C154.449 56.77 153.944 56.915 153.354 57.015C152.764 57.125 152.164 57.18 151.554 57.18C148.224 57.18 146.559 55.42 146.559 51.9C146.559 50.07 146.999 48.735 147.879 47.895C148.759 47.045 150.054 46.62 151.764 46.62C152.764 46.62 153.799 46.74 154.869 46.98V49.635H153.819L153.564 47.925C152.944 47.795 152.304 47.73 151.644 47.73ZM160.271 49.26C161.421 49.26 162.341 49.58 163.031 50.22C163.731 50.85 164.081 51.855 164.081 53.235C164.081 54.615 163.731 55.625 163.031 56.265C162.341 56.895 161.421 57.21 160.271 57.21C159.121 57.21 158.196 56.895 157.496 56.265C156.806 55.625 156.461 54.615 156.461 53.235C156.461 51.855 156.806 50.85 157.496 50.22C158.196 49.58 159.121 49.26 160.271 49.26ZM160.271 50.34C159.671 50.34 159.191 50.425 158.831 50.595C158.481 50.765 158.216 51.06 158.036 51.48C157.866 51.9 157.781 52.485 157.781 53.235C157.781 53.985 157.866 54.57 158.036 54.99C158.216 55.41 158.481 55.705 158.831 55.875C159.191 56.045 159.671 56.13 160.271 56.13C160.871 56.13 161.346 56.045 161.696 55.875C162.056 55.705 162.321 55.41 162.491 54.99C162.671 54.57 162.761 53.985 162.761 53.235C162.761 52.485 162.671 51.9 162.491 51.48C162.321 51.06 162.056 50.765 161.696 50.595C161.346 50.425 160.871 50.34 160.271 50.34ZM173.232 49.47V50.31L172.362 50.73L169.692 57H168.252L165.567 50.73L164.697 50.31V49.47H167.967V50.31L166.947 50.715L169.092 55.89L171.237 50.715L170.217 50.31V49.47H173.232ZM175.6 46.185C175.91 46.185 176.155 46.275 176.335 46.455C176.525 46.635 176.62 46.89 176.62 47.22C176.62 47.55 176.525 47.805 176.335 47.985C176.155 48.165 175.91 48.255 175.6 48.255C175.29 48.255 175.04 48.165 174.85 47.985C174.67 47.805 174.58 47.55 174.58 47.22C174.58 46.89 174.67 46.635 174.85 46.455C175.04 46.275 175.29 46.185 175.6 46.185ZM176.35 55.725L177.37 56.175V57H174.07V56.175L175.09 55.725V50.745L174.07 50.325V49.47H176.35V55.725ZM186.727 56.175V57H184.942L184.552 55.92C184.132 56.34 183.682 56.65 183.202 56.85C182.732 57.05 182.187 57.15 181.567 57.15C180.887 57.15 180.327 57.035 179.887 56.805C179.457 56.565 179.132 56.165 178.912 55.605C178.692 55.035 178.582 54.255 178.582 53.265C178.582 51.855 178.852 50.835 179.392 50.205C179.932 49.575 180.702 49.26 181.702 49.26C182.162 49.26 182.612 49.325 183.052 49.455C183.492 49.585 183.957 49.795 184.447 50.085V47.625L183.427 47.205V46.35H185.707V55.725L186.727 56.175ZM179.902 53.385C179.902 54.075 179.967 54.615 180.097 55.005C180.237 55.395 180.447 55.67 180.727 55.83C181.007 55.98 181.372 56.055 181.822 56.055C182.752 56.055 183.627 55.73 184.447 55.08V50.97C183.817 50.74 183.337 50.58 183.007 50.49C182.687 50.4 182.352 50.355 182.002 50.355C181.252 50.355 180.712 50.605 180.382 51.105C180.062 51.595 179.902 52.355 179.902 53.385Z" fill="#E8F5FF"/>
</svg>
