<svg width="24" height="24" viewBox="0 0 24 24" fill="none" xmlns="http://www.w3.org/2000/svg">
<g clip-path="url(#clip0)">
<path d="M8.95364 21.8458C7.9158 21.8458 6.84757 21.7617 5.77293 21.5933C3.88017 21.2963 1.96416 20.3062 1.42199 20.0098L0 19.2323L1.53954 18.726C3.22246 18.1727 4.2462 17.8293 5.51347 17.2918C4.24455 16.6772 3.26659 15.5718 2.79583 14.1429L2.43767 13.0556L2.73137 13.1005C2.45287 12.8198 2.23296 12.5349 2.06249 12.2758C1.45623 11.3549 1.13525 10.2297 1.20355 9.26551L1.27093 8.31647L1.8391 8.53656C1.59942 8.08393 1.4262 7.60053 1.3244 7.09388C1.07629 5.85828 1.28393 4.5456 1.90923 3.39771L2.40417 2.48914L3.06609 3.28418C5.15953 5.79895 7.81107 7.29071 10.9581 7.72742C10.8295 6.84137 10.9259 5.98627 11.2446 5.21979C11.6158 4.32733 12.2761 3.57056 13.1535 3.03113C14.128 2.43219 15.3098 2.14197 16.4811 2.21393C17.7238 2.29029 18.8521 2.75592 19.7482 3.5614C20.1858 3.4477 20.5083 3.3263 20.9441 3.16223C21.2063 3.06354 21.5036 2.95148 21.8757 2.82331L23.2468 2.35089L22.3527 4.90448C22.4117 4.89954 22.4724 4.89533 22.536 4.89258L24.0001 4.8263L23.1347 6.00898C23.0851 6.07672 23.0725 6.09595 23.0549 6.1225C22.9851 6.2276 22.8983 6.35834 21.7105 7.9444C21.4132 8.34156 21.2647 8.85883 21.2923 9.40119C21.3976 11.4622 21.1448 13.327 20.5403 14.9434C19.9687 16.4727 19.0828 17.7849 17.9076 18.8434C16.4534 20.153 14.5991 21.0496 12.396 21.5081C11.3153 21.733 10.1548 21.8458 8.95364 21.8458V21.8458Z" fill="#E8F5FF"/>
</g>
<defs>
<clipPath id="clip0">
<rect width="24" height="24" fill="white"/>
</clipPath>
</defs>
</svg>
